HIERARCHY
ROOT Hips
{
  OFFSET 196.326 95.9168 97.7182
  CHANNELS 6 Xposition Yposition Zposition Zrotation Xrotation Yrotation
  JOINT LeftUpLeg
  {
    OFFSET 8.64259 1.95398 -2.38835
    CHANNELS 3 Zrotation Xrotation Yrotation
    JOINT LeftLeg
    {
      OFFSET 43.7702 0 0
      CHANNELS 3 Zrotation Xrotation Yrotation
      JOINT LeftFoot
      {
        OFFSET 40.6238 0 0
        CHANNELS 3 Zrotation Xrotation Yrotation
        JOINT LeftToeBase
        {
          OFFSET 12.7242 0 0
          CHANNELS 3 Zrotation Xrotation Yrotation
          End Site
          {
            OFFSET 0 0 0
          }
        }
      }
    }
  }
  JOINT RightUpLeg
  {
    OFFSET -8.2249 1.95398 -2.59336
    CHANNELS 3 Zrotation Xrotation Yrotation
    JOINT RightLeg
    {
      OFFSET 43.5653 0 0
      CHANNELS 3 Zrotation Xrotation Yrotation
      JOINT RightFoot
      {
        OFFSET 40.6238 0 0
        CHANNELS 3 Zrotation Xrotation Yrotation
        JOINT RightToeBase
        {
          OFFSET 12.7242 0 0
          CHANNELS 3 Zrotation Xrotation Yrotation
          End Site
          {
            OFFSET 0 0 0
          }
        }
      }
    }
  }
  JOINT Spine
  {
    OFFSET 0.165834 0.87714 6.61349
    CHANNELS 3 Zrotation Xrotation Yrotation
    JOINT Spine1
    {
      OFFSET 7.38963 1.71661e-005 0
      CHANNELS 3 Zrotation Xrotation Yrotation
      JOINT Spine2
      {
        OFFSET 11.9445 1.14441e-005 0
        CHANNELS 3 Zrotation Xrotation Yrotation
        JOINT Spine3
        {
          OFFSET 14.7254 4.19617e-005 0
          CHANNELS 3 Zrotation Xrotation Yrotation
          JOINT Spine4
          {
            OFFSET 10.9679 0 0
            CHANNELS 3 Zrotation Xrotation Yrotation
            JOINT RightShoulder
            {
              OFFSET 2.46616 -1.6653 3.69651
              CHANNELS 3 Zrotation Xrotation Yrotation
              JOINT RightArm
              {
                OFFSET 13.0012 0 0
                CHANNELS 3 Zrotation Xrotation Yrotation
                JOINT RightForeArm
                {
                  OFFSET 28.7848 1.52588e-005 0
                  CHANNELS 3 Zrotation Xrotation Yrotation
                  JOINT RightHand
                  {
                    OFFSET 26.5688 1.52588e-005 0
                    CHANNELS 3 Zrotation Xrotation Yrotation
                    End Site
                    {
                      OFFSET 0 0 0
                    }
                  }
                }
              }
            }
            JOINT LeftShoulder
            {
              OFFSET 2.38034 -1.29275 -3.75231
              CHANNELS 3 Zrotation Xrotation Yrotation
              JOINT LeftArm
              {
                OFFSET 16.3182 6.10351e-005 0
                CHANNELS 3 Zrotation Xrotation Yrotation
                JOINT LeftForeArm
                {
                  OFFSET 27.0901 0 0
                  CHANNELS 3 Zrotation Xrotation Yrotation
                  JOINT LeftHand
                  {
                    OFFSET 24.5451 1.52588e-005 0
                    CHANNELS 3 Zrotation Xrotation Yrotation
                    End Site
                    {
                      OFFSET 0 0 0
                    }
                  }
                }
              }
            }
            JOINT Neck
            {
              OFFSET 5.0226 -0.0266342 0
              CHANNELS 3 Zrotation Xrotation Yrotation
              JOINT Head
              {
                OFFSET 6.69363 2.86102e-005 0
                CHANNELS 3 Zrotation Xrotation Yrotation
                End Site
                {
                  OFFSET 0 0 0
                }
              }
            }
          }
        }
      }
    }
  }
}
MOTION
Frames:	9
Frame Time:	0.0416667
30.4422 95.9263 -26.3727 93.7566 -39.0378 90.8133 -173.501 4.69835 84.2533 -21.4661 14.905 -2.31088 62.0433 8.37652 16.217 46.7687 15.2072 -24.3845 179.001 22.8107 89.4395 -45.3729 9.77002 -2.57115 59.0245 -1.86145 -1.03874 40.4431 1.27434 13.9268 -0.219165 6.67529 -89.8574 13.5237 -0.365748 0.333293 1.85276 -0.350734 0.349062 -20.6826 -0.449019 0.207959 -0.669939 -0.449009 0.207957 85.4441 -48.0285 -108.382 16.1543 -20.0671 -7.75819 9.30526 3.65484 -93.52 -14.9044 -1.49011 6.17859 -98.7444 -39.5334 61.7502 -16.4452 3.54999 -10.1616 -23.038 -19.7546 -63.511 -4.32019 -0.00826046 -10.0934 -6.98848 4.28163 1.49442 -20.0013 3.48171 5.74807 
37.8042 95.5706 -20.8199 90.5161 -34.4545 88.5704 -173.423 -0.0429291 84.8681 -18.2729 16.8321 -2.17817 62.3165 9.00643 17.5989 56.225 20.7567 -28.7898 178.701 22.6257 88.5756 -17.387 7.20393 0.348892 63.7262 -2.231 -1.25223 51.8947 2.98562 10.9929 -0.461511 6.47571 -89.8061 13.9245 -0.820069 0.499073 2.25367 -0.797305 0.534675 -20.2833 -0.932153 0.229514 -0.270684 -0.932158 0.229513 86.4515 -47.8866 -106.867 15.8307 -14.207 -7.73793 13.9979 3.63141 -91.7371 -10.8518 -0.827294 4.20269 -99.0015 -39.1315 61.1584 -16.2513 4.79874 -12.2106 -19.7097 -15.3351 -67.5596 1.51011 -0.0999123 -4.64656 -5.75748 2.41553 -0.867141 -19.6045 1.95635 4.65584 
45.2549 94.0761 -15.0636 89.6994 -30.1608 86.7294 -173.3 -5.67897 85.2401 -17.5903 20.1086 -1.83327 62.4586 10.4178 18.0007 59.3741 24.6788 -22.8459 -179.385 25.5674 86.1914 -4.08769 14.3682 -0.614585 63.4085 -0.174409 -0.0161729 63.6336 6.0634 15.6605 -0.739797 6.43385 -89.6231 14.0122 -1.28186 0.930464 2.34149 -1.23965 0.985969 -20.1978 -1.5022 0.502146 -0.185141 -1.50222 0.502148 87.6892 -47.1067 -105.166 15.2013 -10.1254 -9.52072 17.0975 3.45134 -90.4548 -7.67707 -0.59981 5.82787 -99.3684 -38.9103 60.4645 -15.0791 5.35993 -15.1114 -16.9578 -12.4401 -71.039 4.95968 0.0987156 -1.45242 -4.53909 0.979478 -2.40371 -19.4809 0.827891 3.44436 
53.225 91.7025 -8.59453 90.8313 -29.0701 87.0875 -173.146 -9.14481 87.1966 -25.206 25.9054 -0.602442 60.7537 8.01534 16.7523 68.4387 33.1086 -18.8035 179.372 29.1573 87.5928 -14.7478 17.1373 1.1545 65.4733 -0.719378 -0.398404 55.9734 4.1917 13.8307 -0.817246 6.53504 -89.6159 13.8112 -1.43334 0.957575 2.14067 -1.3898 1.01972 -20.4 -1.65485 0.48245 -0.387328 -1.65484 0.482448 87.983 -46.9556 -104.747 13.9252 -8.53051 -11.1695 19.31 3.75081 -88.9591 -5.94354 -0.368753 5.74743 -99.7448 -38.7901 59.7999 -16.0136 4.28866 -14.982 -17.105 -11.0983 -74.8402 8.14347 0.39417 0.92284 -4.41004 0.483244 -2.74276 -19.1656 0.48662 2.47154 
62.0587 90.2634 -1.76505 91.8418 -30.6067 91.6599 -172.166 -8.12113 93.6483 -35.7534 28.3044 0.852786 45.3728 -7.54663 1.68459 92.1846 47.329 -25.5452 179.555 32.2932 93.526 -31.9291 12.2333 1.25696 60.9865 -0.773368 -0.348154 40.6674 1.41907 17.2979 -0.731791 6.52029 -90.201 13.8371 -1.54868 -0.195226 2.16709 -1.55579 -0.126868 -20.3747 -1.41839 -0.651736 -0.362053 -1.41839 -0.65174 87.5728 -47.0012 -105.38 13.3336 -9.86552 -11.0375 19.5182 4.22939 -88.365 -4.77567 -0.243816 6.10445 -99.5943 -40.1797 60.6663 -17.9027 4.10437 -12.4772 -15.6086 -10.083 -76.9949 7.97751 0.636011 3.65863 -5.90064 1.20379 -0.53376 -19.717 1.02272 1.98311 
69.4755 90.0821 4.68676 95.2653 -31.298 94.4564 -174.68 0.0827434 95.7591 -54.5322 26.7607 1.88578 33.1235 -15.1856 -3.87767 45.4694 18.67 1.10408 178.976 28.7626 96.9957 -43.0787 11.9434 0.781055 68.876 -2.34685 -1.23121 27.0134 -1.64619 19.2684 -0.617817 6.78208 -90.2084 13.309 -1.32664 -0.249781 1.63871 -1.33632 -0.191148 -20.9008 -1.19022 -0.636996 -0.888187 -1.19022 -0.636988 86.5573 -47.5066 -106.819 14.1125 -10.0119 -9.25248 19.3171 3.98776 -88.318 -4.98832 -0.307873 6.97454 -99.6654 -39.6787 60.3305 -18.7784 4.0823 -10.4852 -14.4585 -9.46989 -77.8591 8.64759 0.717269 3.98947 -7.05163 1.1081 -0.593591 -19.3305 1.00364 1.34135 
77.039 92.3323 11.2274 96.0741 -32.9837 94.1484 -174.61 11.8813 94.3501 -62.1539 20.2683 1.16619 44.1815 -7.07931 7.45977 50.9332 22.961 -4.64332 179.637 19.6626 97.7455 -40.1964 12.0471 0.00657889 73.9546 -3.79215 -1.88698 26.3138 -1.92779 20.6317 -0.319696 6.88848 -90.0347 13.099 -0.65125 0.011015 1.42825 -0.650091 0.0396534 -21.1083 -0.624441 -0.185227 -1.09564 -0.624424 -0.185229 86.2658 -47.3849 -107.312 15.3609 -9.70629 -7.71329 19.2623 4.0312 -87.7303 -5.49617 -0.312251 5.58474 -99.851 -40.2021 60.2673 -18.2886 4.81929 -11.0675 -15.3867 -10.0034 -76.7988 9.84121 0.73455 3.32599 -7.77069 0.609221 -1.00688 -18.7554 0.547203 1.26745 
84.4644 94.4988 17.4748 94.6683 -35.9189 91.4553 -173.105 19.685 91.5746 -50.8731 14.9633 -0.243621 51.8011 -1.14643 9.97094 55.3886 27.4569 -4.43301 -179.6 11.1794 96.7748 -33.6168 10.4886 -1.42418 75.2841 -4.19244 -2.03296 29.1221 -1.28183 21.335 0.00568208 6.79625 -89.7192 13.28 0.146731 0.541982 1.60893 0.170448 0.534994 -20.9252 -0.022951 0.56102 -0.91255 -0.0229353 0.561026 85.9528 -46.9756 -107.932 17.275 -8.33867 -6.23149 14.8228 1.81488 -88.0731 -3.25929 -0.114878 6.25824 -99.0115 -39.9734 61.5107 -18.9203 5.35758 -10.3349 -15.6853 -9.89676 -77.3782 10.1257 0.671108 2.58076 -8.21028 0.927908 -0.510503 -17.9484 0.917454 0.467172 
91.9547 95.3605 23.1802 92.2463 -39.5618 89.2092 -173.034 21.5974 89.9295 -23.9451 10.0117 -1.08497 54.7149 1.5564 11.1118 58.8743 33.2938 1.35938 179.802 4.0596 95.2666 -28.0258 6.80841 -1.51765 75.2111 -4.37337 -2.10511 31.6559 -0.619242 20.5322 0.344527 6.66964 -89.6059 13.5318 0.874528 0.67646 1.86098 0.903426 0.637313 -20.6742 0.630795 0.908012 -0.66151 0.630773 0.908006 85.8348 -45.3469 -108.656 18.6927 -8.53405 -5.66999 15.5248 2.50272 -89.6403 -4.98782 -0.298265 6.12251 -98.1836 -40.1719 62.9278 -18.9313 5.51935 -9.59698 -16.8855 -9.67406 -79.5747 10.1053 0.605846 2.0001 -7.23477 1.4638 1.83526 -17.3651 1.44013 -1.30409 
